      :::::::::  :::::::::   ::::::::::: ::::::::  ::::    ::: :::::::::: 
     :+:    :+: :+:    :+:      :+:    :+:    :+: :+:+:   :+: :+:         
    +:+    +:+ +:+    +:+      +:+    +:+    +:+ :+:+:+  +:+ +:+          
   +#++:++#+  +#++:++#+       +#+    +#+    +:+ +#+ +:+ +#+ +#++:++#      
  +#+        +#+    +#+      +#+    +#+    +#+ +#+  +#+#+# +#+            
 #+#        #+#    #+#      #+#    #+#    #+# #+#   #+#+# #+#             
###        #########       ###     ########  ###    #### ########## 



General
Format                           : AVI
Format/Info                      : Audio Video Interleave
File size                        : 31.5 MiB
Duration                         : 3mn 42s
Overall bit rate                 : 1 184 Kbps
Writing application              : MEncoder Sherpya-SVN-r30075-4.2.5
Writing library                  : MPlayer

Video
ID                               : 0
Format                           : MPEG-4 Visual
Format profile                   : Simple@L3
Format settings, BVOP            : No
Format settings, QPel            : No
Format settings, GMC             : No warppoints
Format settings, Matrix          : Default (H.263)
Codec ID                         : XVID
Codec ID/Hint                    : XviD
Duration                         : 3mn 42s
Bit rate                         : 984 Kbps
Width                            : 720 pixels
Height                           : 576 pixels
Display aspect ratio             : 5:4
Frame rate                       : 29.970 fps
Standard                         : PAL
Color space                      : YUV
Chroma subsampling               : 4:2:0
Bit depth                        : 8 bits
Scan type                        : Progressive
Compression mode                 : Lossy
Bits/(Pixel*Frame)               : 0.079
Stream size                      : 26.1 MiB (83%)
Writing library                  : XviD 1.2.1 (UTC 2008-12-04)

Audio
ID                               : 1
Format                           : MPEG Audio
Format version                   : Version 1
Format profile                   : Layer 3
Mode                             : Joint stereo
Mode extension                   : MS Stereo
Codec ID                         : 55
Codec ID/Hint                    : MP3
Duration                         : 3mn 42s
Bit rate mode                    : Variable
Bit rate                         : 187 Kbps
Channel(s)                       : 2 channels
Sampling rate                    : 44.1 KHz
Compression mode                 : Lossy
Stream size                      : 4.97 MiB (16%)
Alignment                        : Aligned on interleaves
Interleave, duration             : 26 ms (0.78 video frame)
Interleave, preload duration     : 552 ms



Screens:- http://imagehacks.in/share-57F2_4CF20C1F.html